<svg width="185" height="37" viewBox="0 0 185 37" fill="none" xmlns="http://www.w3.org/2000/svg">
<path d="M18.68 36.48C14.872 36.48 11.592 35.776 8.84 34.368C6.12 32.928 4.04 30.864 2.6 28.176C1.16 25.488 0.44 22.256 0.44 18.48C0.44 14.704 1.16 11.472 2.6 8.784C4.04 6.096 6.12 4.048 8.84 2.64C11.592 1.2 14.872 0.48 18.68 0.48C22.52 0.48 25.8 1.2 28.52 2.64C31.24 4.048 33.32 6.096 34.76 8.784C36.2 11.472 36.92 14.704 36.92 18.48C36.92 22.256 36.2 25.488 34.76 28.176C33.32 30.864 31.24 32.928 28.52 34.368C25.8 35.776 22.52 36.48 18.68 36.48ZM18.68 28.32C20.536 28.32 22.088 27.952 23.336 27.216C24.584 26.48 25.512 25.392 26.12 23.952C26.76 22.48 27.08 20.656 27.08 18.48C27.08 16.304 26.76 14.496 26.12 13.056C25.512 11.584 24.584 10.48 23.336 9.744C22.088 9.008 20.536 8.64 18.68 8.64C16.824 8.64 15.272 9.008 14.024 9.744C12.776 10.48 11.832 11.584 11.192 13.056C10.584 14.496 10.28 16.304 10.28 18.48C10.28 20.656 10.584 22.48 11.192 23.952C11.832 25.392 12.776 26.48 14.024 27.216C15.272 27.952 16.824 28.32 18.68 28.32ZM41.255 36V0.959999H53.735C58.599 0.959999 62.295 1.696 64.823 3.168C67.351 4.608 68.615 6.752 68.615 9.6C68.615 11.744 67.975 13.504 66.695 14.88C65.447 16.256 63.687 17.12 61.415 17.472V17.568C64.071 17.888 66.087 18.768 67.463 20.208C68.871 21.616 69.575 23.52 69.575 25.92C69.575 29.216 68.263 31.728 65.639 33.456C63.015 35.152 59.207 36 54.215 36H41.255ZM54.215 28.56C56.103 28.56 57.495 28.272 58.391 27.696C59.287 27.12 59.735 26.24 59.735 25.056C59.735 23.84 59.287 22.96 58.391 22.416C57.527 21.872 56.135 21.6 54.215 21.6H46.055V14.4H54.215C56.007 14.4 57.255 14.176 57.959 13.728C58.663 13.28 59.015 12.512 59.015 11.424C59.015 10.304 58.647 9.52 57.911 9.072C57.207 8.624 55.975 8.4 54.215 8.4H50.855V28.56H54.215ZM90.2113 36.48C86.4033 36.48 83.1233 35.776 80.3713 34.368C77.6513 32.928 75.5713 30.864 74.1313 28.176C72.6913 25.488 71.9713 22.256 71.9713 18.48C71.9713 14.704 72.6913 11.472 74.1313 8.784C75.5713 6.096 77.6513 4.048 80.3713 2.64C83.1233 1.2 86.4033 0.48 90.2113 0.48C94.0513 0.48 97.3313 1.2 100.051 2.64C102.771 4.048 104.851 6.096 106.291 8.784C107.731 11.472 108.451 14.704 108.451 18.48C108.451 22.256 107.731 25.488 106.291 28.176C104.851 30.864 102.771 32.928 100.051 34.368C97.3313 35.776 94.0513 36.48 90.2113 36.48ZM90.2113 28.32C92.0673 28.32 93.6193 27.952 94.8673 27.216C96.1153 26.48 97.0433 25.392 97.6512 23.952C98.2913 22.48 98.6113 20.656 98.6113 18.48C98.6113 16.304 98.2913 14.496 97.6512 13.056C97.0433 11.584 96.1153 10.48 94.8673 9.744C93.6193 9.008 92.0673 8.64 90.2113 8.64C88.3553 8.64 86.8033 9.008 85.5553 9.744C84.3073 10.48 83.3633 11.584 82.7233 13.056C82.1153 14.496 81.8113 16.304 81.8113 18.48C81.8113 20.656 82.1153 22.48 82.7233 23.952C83.3633 25.392 84.3073 26.48 85.5553 27.216C86.8033 27.952 88.3553 28.32 90.2113 28.32ZM130.055 36.48C126.247 36.48 122.967 35.776 120.215 34.368C117.495 32.928 115.415 30.864 113.975 28.176C112.535 25.488 111.815 22.256 111.815 18.48C111.815 14.704 112.535 11.472 113.975 8.784C115.415 6.096 117.495 4.048 120.215 2.64C122.967 1.2 126.247 0.48 130.055 0.48C133.895 0.48 137.175 1.2 139.895 2.64C142.615 4.048 144.695 6.096 146.135 8.784C147.575 11.472 148.295 14.704 148.295 18.48C148.295 22.256 147.575 25.488 146.135 28.176C144.695 30.864 142.615 32.928 139.895 34.368C137.175 35.776 133.895 36.48 130.055 36.48ZM130.055 28.32C131.911 28.32 133.463 27.952 134.711 27.216C135.959 26.48 136.887 25.392 137.495 23.952C138.135 22.48 138.455 20.656 138.455 18.48C138.455 16.304 138.135 14.496 137.495 13.056C136.887 11.584 135.959 10.48 134.711 9.744C133.463 9.008 131.911 8.64 130.055 8.64C128.199 8.64 126.647 9.008 125.399 9.744C124.151 10.48 123.207 11.584 122.567 13.056C121.959 14.496 121.655 16.304 121.655 18.48C121.655 20.656 121.959 22.48 122.567 23.952C123.207 25.392 124.151 26.48 125.399 27.216C126.647 27.952 128.199 28.32 130.055 28.32ZM152.63 36V0.959999H162.23V16.08H162.326L172.79 0.959999H183.83L172.07 18L184.31 36H173.27L162.326 19.92H162.23V36H152.63Z" fill="url(#paint0_linear_47_40)"/>
<defs>
<linearGradient id="paint0_linear_47_40" x1="92" y1="15" x2="92" y2="50" gradientUnits="userSpaceOnUse">
<stop stop-color="#70CB95"/>
<stop offset="1" stop-color="white" stop-opacity="0"/>
</linearGradient>
</defs>
</svg>
